# xmcd
#
# Track frame offsets: 
#        150
#        17897
#        38242
#        61603
#        80332
#        97236
#        117581
#        140273
#        159427
#        175753
#        197394
#
# Disc length: 2859 seconds
#
# Revision: 0
# Processed by: cddbd v1.5.2PL0 Copyright (c) Steve Scherf et al.
# Submitted via: ExactAudioCopy v1.1
#
DISCID=880b290b
DTITLE=Kris Barras Band - Lucky 13
DYEAR=2016
DGENRE=Blues Rock
TTITLE0=Heart on Your Sleeve
TTITLE1=I Got Time
TTITLE2=Rock 'n' Roll Running Through My Veins
TTITLE3=Can't Help You Now
TTITLE4=I'm Gone
TTITLE5=Nothing to Hide
TTITLE6=Tearing Me Apart
TTITLE7=Big City Lights
TTITLE8=Small Town Blues
TTITLE9=Too Dumb to Care
TTITLE10=Devil's Done Alright
EXTD=
EXTT0=
EXTT1=
EXTT2=
EXTT3=
EXTT4=
EXTT5=
EXTT6=
EXTT7=
EXTT8=
EXTT9=
EXTT10=
PLAYORDER=
